<?xml version="1.0" encoding="utf-8"?>
<!-- Generator: Adobe Illustrator 19.0.0, SVG Export Plug-In . SVG Version: 6.00 Build 0)  -->
<!DOCTYPE svg PUBLIC "-//W3C//DTD SVG 1.1//EN" "http://www.w3.org/Graphics/SVG/1.1/DTD/svg11.dtd">
<svg version="1.1" id="Layer_1" xmlns="http://www.w3.org/2000/svg" xmlns:xlink="http://www.w3.org/1999/xlink" x="0px" y="0px"
	 viewBox="0 0 300 447.7" enable-background="new 0 0 300 447.7" xml:space="preserve">
<path id="XMLID_36_" fill="#EBCAB1" d="M74.4,350.5c-3,0.4-5.4,2.5-7.2,4.7c-3.8,4.7-5.7,10.6-5.4,16.4c0.1,1.3,0.3,2.7,1.3,3.7
	c0.2,0.2,0.5,0.4,0.8,0.4c0.5,0,0.8-0.4,1-0.7c2.6-3.6,4.4-7.7,5.1-12c-0.3,6.2-0.6,12.5,1.3,18.5c0.8,2.5,2.2,5.2,4.8,6.4
	c1-7,1.3-14,1.1-21.1c0,4.8,1,9.5,2.8,14c1,2.4,2.3,4.9,4.6,6.4c1.1-6.7,0.8-13.6-0.9-20.3c1.6,6,4,11.8,6.9,17.4
	c0.7,1.3,1.8,2.8,3.3,2.6c2.4-6.5-0.5-13.6-3.6-19.9c1.1,2,2.7,3.8,4.6,5.2c1,0.8,2.5,1.5,3.7,0.9c0.5-0.2,0.8-0.6,1-1
	c0.9-1.6,0.3-3.5-0.8-5s-2.7-2.5-4.3-3.6c-2.3-1.6-4.4-3.4-6.4-5.4c-1.9-1.9-3.7-3.9-6-5.5C80.1,351.2,77.2,350.1,74.4,350.5z"/>
<path id="XMLID_35_" fill="#EBCAB1" d="M209.3,346.2c-2.8,1-4.6,3.4-5.9,5.8c-2.7,5.1-3.4,11-2,16.4c0.3,1.2,0.8,2.5,2,3.2
	c0.2,0.1,0.5,0.3,0.8,0.2c0.4-0.1,0.7-0.5,0.8-0.9c1.8-3.9,2.6-8.1,2.5-12.2c0.9,5.9,1.8,11.9,4.7,17.1c1.2,2.2,3,4.5,5.7,5.1
	c-0.4-6.7-1.4-13.4-3-20c1,4.5,2.8,8.8,5.3,12.7c1.4,2.1,3.1,4.2,5.6,5.2c-0.3-6.5-1.8-13-4.7-18.9c2.7,5.3,6,10.4,9.8,15.1
	c0.9,1.1,2.2,2.3,3.6,1.8c1-6.6-3-12.7-7.2-18c1.4,1.7,3.2,3,5.3,4c1.1,0.5,2.6,0.9,3.6,0.1c0.4-0.3,0.6-0.7,0.8-1.1
	c0.5-1.6-0.4-3.4-1.7-4.5s-3-1.8-4.7-2.6c-2.5-1.1-4.8-2.4-7-3.8c-2.2-1.4-4.3-3-6.7-4S211.9,345.3,209.3,346.2z"/>
<g id="XMLID_15_">
	<path id="XMLID_34_" fill="#EBCAB1" d="M92.7,85.3c0,0,36-30,50.4-29.8c15.2,0.2,51.2,26.3,51.2,26.3l8.7,61.6V183
		c0,0,0.1,25.8-6.2,31.9c-6.1,5.9-31,16.9-31,16.9l-4.4,1.8l22.6,26.4h-75.4l18.7-22.6l-1.7-2.8c0,0-23.3-15.4-28.7-20.4
		c-6.3-5.8-11.1-30.3-11.1-30.3v-40.7L92.7,85.3z"/>
	<path id="XMLID_33_" fill="#EBCAB1" d="M90.4,140.1c-3-2.1-7.7-5.6-13.5-5.6s-8.6,7.9-8.6,7.9s-1.1,12.1,0,15.6
		c1.1,3.5,6.9,10.2,9.9,12.8c1.7,1.5,5.3,4.8,7.5,5.5c1.3,0.4,5.3,0,5.3,0s1.7,0.3,2.2,0c0.7-0.4,1.8-2.6,1.8-2.6l-2.9-32.6
		C92.2,141.2,90.9,140.4,90.4,140.1z"/>
	<path id="XMLID_32_" fill="#EBCAB1" d="M197.9,140.1c3-2.1,7.7-5.6,13.5-5.6s8.6,7.9,8.6,7.9s1.1,12.1,0,15.6
		c-1.1,3.5-6.9,10.2-9.9,12.8c-1.7,1.5-5.3,4.8-7.5,5.5c-1.3,0.4-5.3,0-5.3,0s-1.7,0.3-2.2,0c-0.7-0.4-1.8-2.6-1.8-2.6l2.9-32.6
		C196.2,141.2,197.5,140.4,197.9,140.1z"/>
	<polygon id="XMLID_31_" fill="#B29680" points="175.6,195.1 144.8,203.3 112.2,196.7 156.2,197.4 	"/>
	<polygon id="XMLID_30_" fill="#B29680" points="146.1,179.7 139.2,180.2 141.7,175 115.8,170.1 141.7,128 127.7,164.8 167.3,169.5 
			"/>
	<circle id="XMLID_29_" cx="120.2" cy="122.1" r="3.3"/>
	<circle id="XMLID_28_" cx="168.6" cy="124.3" r="3.3"/>
	<path id="XMLID_27_" fill="#553B35" d="M153.3,109.6c0.1,1.5-0.2,5.8,1.2,6.4c1.2,0.6,5.4-1,6.8-1.3c2.5-0.4,5-0.6,7.5-0.7
		c2.2,0,4.5,0.2,6.6,0.7c2.3,0.5,4.4,2,6.5,2.5c1.3,0.3,0.6,0.4,1.4-0.5c0.4-0.5,0.6-1.6,0.9-2.3c0.4-1.1,0.9-2.2,1.3-3.3l-14.3-2.6
		L153.3,109.6z"/>
	<path id="XMLID_26_" fill="#553B35" d="M104.7,110.2c0.2,1.7,0,5.8,1.6,6.4c1.4,0.5,5.2-1.2,6.7-1.5c2.4-0.5,4.8-0.8,7.2-0.9
		c5.2-0.2,9.5,1.1,14.2,3c1.3-1.7,1.8-4.6,2.5-6.7l-14.4-2.1L104.7,110.2z"/>
	<path id="XMLID_51_" fill="#B29680" d="M88,162.1c-0.2,0-0.3,0-0.4-0.1l-3.5-1.1c-0.6-0.2-2.2-0.7-2.4-2l1-0.2
		c0.1,0.5,0.6,0.9,1.7,1.2l3.5,1.1c0.2-1.3,0.5-2.7,0.3-4.1c-0.2-1.4-1.1-2.6-2.1-3c-0.3-0.1-0.5-0.2-0.8-0.2
		c-0.5-0.1-1-0.2-1.4-0.5c-0.7-0.4-1.1-1.1-1.2-1.9c-0.1-0.8,0.1-1.6,0.7-2.2c0.3-0.3,0.7-0.5,1.1-0.8c0.4-0.2,0.7-0.4,0.9-0.7
		c0.4-0.5,0.5-1.2,0.5-1.8c0-0.4,0-0.7-0.1-0.9c-0.2-0.3-0.5-0.5-1.2-0.7c-1.9-0.5-4-0.5-5.9,0.1c-0.4,0.1-0.8,0.3-1.1,0.5
		c-0.8,0.6-1.2,1.8-1.1,3.5c0.1,1.8,0.5,3.2,1.3,4.2l-0.8,0.6c-0.9-1.1-1.4-2.7-1.5-4.8c-0.1-2.1,0.4-3.5,1.5-4.3
		c0.5-0.3,1-0.5,1.4-0.7c2.1-0.7,4.4-0.7,6.5-0.1c0.6,0.2,1.4,0.5,1.8,1.2c0.2,0.4,0.2,0.9,0.2,1.4c0,0.7-0.1,1.7-0.7,2.4
		c-0.3,0.4-0.8,0.6-1.2,0.9c-0.3,0.2-0.6,0.4-0.9,0.6c-0.3,0.3-0.5,0.8-0.4,1.3c0.1,0.5,0.3,1,0.7,1.2c0.3,0.2,0.7,0.3,1.1,0.4
		c0.3,0.1,0.6,0.1,1,0.3c1.7,0.6,2.5,2.3,2.8,3.7c0.3,1.6,0,3.1-0.3,4.5c0,0.2-0.1,0.5-0.5,0.7C88.3,162.1,88.2,162.1,88,162.1z"/>
	<path id="XMLID_52_" fill="#B29680" d="M204.3,163.8c-0.1,0-0.1,0-0.2,0c-0.3-0.1-0.5-0.3-0.6-0.5l-2-3.1c-0.3-0.5-1.3-1.9-0.6-3.1
		l0.9,0.5c-0.3,0.4-0.1,1.1,0.5,2l2,3c1-0.8,2.2-1.8,2.9-3c0.7-1.2,0.8-2.7,0.3-3.7c-0.1-0.2-0.3-0.5-0.5-0.7
		c-0.3-0.4-0.6-0.8-0.8-1.3c-0.3-0.7-0.1-1.6,0.3-2.3c0.4-0.7,1.2-1.2,1.9-1.2c0.5,0,0.9,0,1.3,0.1c0.4,0.1,0.8,0.1,1.1,0.1
		c0.6-0.1,1.1-0.6,1.5-1.1c0.2-0.3,0.4-0.5,0.5-0.8c0.1-0.3-0.1-0.8-0.5-1.3c-1.1-1.6-2.8-3-4.6-3.7c-0.3-0.1-0.8-0.3-1.2-0.3
		c-1,0-2.1,0.6-3.1,2c-1.1,1.5-1.7,2.8-1.7,4l-1,0c0-1.5,0.6-3,1.9-4.6c1.3-1.6,2.6-2.4,3.9-2.4c0.6,0,1.1,0.2,1.5,0.4
		c2,0.8,3.8,2.3,5.1,4.1c0.4,0.5,0.8,1.3,0.6,2.1c-0.1,0.5-0.4,0.9-0.7,1.2c-0.5,0.6-1.2,1.2-2.1,1.4c-0.5,0.1-1,0-1.5-0.1
		c-0.4-0.1-0.7-0.1-1-0.1c-0.4,0-0.9,0.3-1.2,0.8c-0.3,0.4-0.4,1-0.2,1.4c0.1,0.3,0.4,0.7,0.6,1c0.2,0.3,0.4,0.5,0.6,0.8
		c0.7,1.3,0.6,3.1-0.3,4.7c-0.8,1.4-2,2.4-3.1,3.3C204.8,163.6,204.6,163.8,204.3,163.8z"/>
	<g id="XMLID_21_">
		<path id="XMLID_23_" fill="#433C27" d="M192.7,125.8l2.8,22l6.3-13.2l-7.3-52.9c0,0-5.6-4-13.2-8.8c4,11.5,6.4,25,6.4,39.6
			C187.6,119.4,193.7,119.2,192.7,125.8z"/>
		<path id="XMLID_22_" fill="#433C27" d="M93.4,132.4c-1-6.6,7.3-10.8,7.3-17.7c0-15.3,2.1-27.6,6.4-39.7
			c-9.2,6.6-16.3,12.5-16.3,12.5l-5.2,47.2l5.1,17.6L93.4,132.4z"/>
	</g>
	<path id="XMLID_20_" fill="#433C27" d="M144.3,62c19.3,0,37.2,21.7,52,32.4l-1.8-12.6c0,0-36.1-26.1-51.3-26.3
		C128.8,55.3,93,85.3,93,85.3l-1,9.3C106.8,83.8,124.8,62,144.3,62z"/>
	<path id="XMLID_17_" fill="#433C27" d="M170.2,183.5c-1.1-0.2-1.9-0.3-2.2-0.4c-5.2-0.6-10.6-0.1-15.8-0.1c-4.9,0-9.8,0-14.7,0
		c-5.4,0-11.5-0.9-16.7,0.4c-1.1,0.3-2.1,0.7-3.1,1c-3.8,1.4-7.6,2.9-11.3,4.3c0.1,8.6,0.3,17.2,0.5,25.8c0,0,21.7,12.3,21.7,12.3
		l4.4,4.2h22l8.8-5.7c0,0,17.2-6.3,17.2-6.3c0.8-0.3,0.6-11.2,0.6-12.2c0.3-6.4,0.6-12.8,1-19.2C182.6,186,174.4,184.3,170.2,183.5z
		 M179.6,193.2l-6.6,12.3l-27.5,1.5h-19.3l-12-3.7l-4.5-8.3l57.5-3.2l5.4-1.5L179.6,193.2z"/>
	<polygon id="XMLID_16_" fill="#352F20" points="131.9,214.7 137,225 148.3,225 155.2,213.4 	"/>
</g>
<polygon id="XMLID_14_" opacity="0.37" fill="#B29680" points="125.7,234.7 142.5,241.5 161.5,233.9 160.5,239.3 144.7,251.2 
	127.7,238.2 "/>
<path id="XMLID_13_" fill="#255296" d="M176.2,372.6l-63.1-1.1l2.1-123.7c0,0,21.7,11.3,30.5,11.5c9.2,0.2,32.6-10.5,32.6-10.5
	L176.2,372.6z"/>
<path id="XMLID_12_" fill="#1D2D44" d="M196,252.9c-1-1.3-2.2-2.6-3.4-3.7c-0.8-0.7-1.6-1.4-2.4-2c-1-0.7-2.1-1.4-3.2-1.7
	c-0.8-0.2-1.7-0.3-2.6-0.4c-3.7-0.3-7.5-0.8-11.1-0.8c-1.9,0-2,0.3-2.6,1.8c-0.9,2.2-1.7,4.3-2.6,6.5c-2.8,6.9-5.5,13.8-8.3,20.7
	c-3.9,9.9-7.9,19.8-11.8,29.6c0,0-28.2-57.1-28.2-57.2c-0.1-0.2-17,4.1-18.3,4.6c-0.7,0.3-1.5,0.6-2.2,1c-3.3,2.2-5.9,7-8.3,10.1
	c-3,3.7-5.9,7.4-8.9,11.1c-5.1,6.4-9.7,12.7-11.6,20.8c-1.5,6.3-4.7,13.6-3.9,20.3c0.7,6.2-0.4,43.6-0.4,43.6l18.7-2.6l2.9-42.9
	l9.9-13.2L94.4,392h108.9l-9.5-97.9l12.2,20.5V348l19.9,3.3c0,0-0.9-49.5-0.9-49.5c-4.3-7.5-8.7-14.9-13.1-22.4
	c-3.1-5.3-6.3-10.5-9.2-15.8C200.7,259.9,198.6,256.2,196,252.9z"/>
<polygon id="XMLID_11_" fill="#192535" points="147.5,301.9 145,297.4 145,392 150,392 150,297.4 "/>
<g id="XMLID_8_">
	<path id="XMLID_10_" fill="#F2F2F2" d="M134.2,275c-2.5-5-5.1-10-7.3-15H91.8c-0.3,1-0.6,0.9-0.9,1.3c-3,3.7-5.9,7.5-8.9,11.2
		c-0.7,0.8-1.3,1.6-1.9,2.6H134.2z"/>
	<path id="XMLID_9_" fill="#F2F2F2" d="M159.8,273.2c-0.2,0.6-0.5,0.8-0.7,1.8h50.2c-2.2-4-4.5-7.6-6.6-11.5
		c-0.6-1.1-1.3-2.5-1.9-3.5H165C163.3,265,161.5,268.8,159.8,273.2z"/>
</g>
<circle id="XMLID_7_" fill="#F2F2F2" cx="147.7" cy="311.6" r="3.1"/>
<circle id="XMLID_6_" fill="#F2F2F2" cx="147.7" cy="324.6" r="3.1"/>
<circle id="XMLID_5_" fill="#F2F2F2" cx="147.7" cy="338.6" r="3.1"/>
<circle id="XMLID_4_" fill="#F2F2F2" cx="147.7" cy="351.6" r="3.1"/>
<circle id="XMLID_3_" fill="#F2F2F2" cx="147.7" cy="362.6" r="3.1"/>
<circle id="XMLID_2_" fill="#F2F2F2" cx="147.7" cy="375.6" r="3.1"/>
<rect id="XMLID_1_" x="10.3" y="424.3" fill="none" width="278" height="88"/>
</svg>
